<?xml version="1.0" encoding="UTF-8"?>
<!DOCTYPE svg PUBLIC "-//W3C//DTD SVG 1.1//EN" "http://www.w3.org/Graphics/SVG/1.1/DTD/svg11.dtd">
<svg xmlns="http://www.w3.org/2000/svg" version="1.1" width="1280px" height="1280px" style="shape-rendering:geometricPrecision; text-rendering:geometricPrecision; image-rendering:optimizeQuality; fill-rule:evenodd; clip-rule:evenodd" xmlns:xlink="http://www.w3.org/1999/xlink">
<g><path style="opacity:1" fill="#fefefe" d="M -0.5,-0.5 C 426.167,-0.5 852.833,-0.5 1279.5,-0.5C 1279.5,426.167 1279.5,852.833 1279.5,1279.5C 852.833,1279.5 426.167,1279.5 -0.5,1279.5C -0.5,852.833 -0.5,426.167 -0.5,-0.5 Z"/></g>
<g><path style="opacity:1" fill="#030303" d="M 619.5,215.5 C 737.475,212.373 840.142,249.873 927.5,328C 1024.51,421.652 1069.35,536.152 1062,671.5C 1047.43,817.247 978.258,928.413 854.5,1005C 740.609,1068.82 621.609,1080.16 497.5,1039C 371.845,991.345 285.679,904.512 239,778.5C 197.992,652.239 210.992,531.905 278,417.5C 358.141,294.146 471.974,226.813 619.5,215.5 Z"/></g>
<g><path style="opacity:1" fill="#212121" d="M 612.5,231.5 C 741.682,225.905 850.515,269.238 939,361.5C 1019.78,451.511 1055.45,557.511 1046,679.5C 1031.25,802.22 974.414,900.054 875.5,973C 767.166,1046.13 649.5,1065.46 522.5,1031C 404.576,992.745 319.076,917.578 266,805.5C 224.825,707.552 220.492,607.885 253,506.5C 293.363,395.464 367.196,314.964 474.5,265C 518.874,246.894 564.874,235.727 612.5,231.5 Z"/></g>
<g><path style="opacity:1" fill="#fbfbfb" d="M 619.5,255.5 C 740.557,252.549 842.39,294.882 925,382.5C 1007.35,478.538 1037.68,589.204 1016,714.5C 990.418,830.027 926.585,917.193 824.5,976C 731.083,1025.37 633.417,1036.03 531.5,1008C 412.96,970.46 329.793,894.293 282,779.5C 238.465,659.718 249.132,545.051 314,435.5C 386.549,326.576 488.382,266.576 619.5,255.5 Z"/></g>
<g><path style="opacity:1" fill="#212120" d="M 611.5,272.5 C 735.807,266.518 838.974,309.852 921,402.5C 995.258,494.865 1021.26,599.532 999,716.5C 973.552,824.907 912.719,906.741 816.5,962C 725.409,1009.74 630.409,1019.4 531.5,991C 424.05,955.886 347.217,886.719 301,783.5C 257.543,674.055 262.877,567.055 317,462.5C 382.944,349.806 481.111,286.473 611.5,272.5 Z"/></g>
<g><path style="opacity:1" fill="#492116" d="M 748.5,383.5 C 747.5,382.833 746.5,382.167 745.5,381.5C 742.993,380.102 740.66,380.436 738.5,382.5C 738.5,381.5 738.5,380.5 738.5,379.5C 741.518,379.335 744.518,379.502 747.5,380C 748.337,381.011 748.67,382.178 748.5,383.5 Z"/></g>
<g><path style="opacity:1" fill="#1b2517" d="M 577.5,387.5 C 549.167,387.5 520.833,387.5 492.5,387.5C 506.317,386.167 520.484,385.501 535,385.5C 549.516,385.501 563.683,386.167 577.5,387.5 Z"/></g>
<g><path style="opacity:1" fill="#371a0c" d="M 492.5,387.5 C 520.833,387.5 549.167,387.5 577.5,387.5C 581.702,387.183 585.702,387.517 589.5,388.5C 554.5,388.5 519.5,388.5 484.5,388.5C 484.215,386.712 484.548,385.045 485.5,383.5C 486.429,384.689 486.762,386.022 486.5,387.5C 488.5,387.5 490.5,387.5 492.5,387.5 Z"/></g>
<g><path style="opacity:1" fill="#963f2f" d="M 484.5,388.5 C 519.5,388.5 554.5,388.5 589.5,388.5C 589.5,388.833 589.5,389.167 589.5,389.5C 555.167,389.5 520.833,389.5 486.5,389.5C 484.502,493.828 483.835,598.495 484.5,703.5C 484.167,703.5 483.833,703.5 483.5,703.5C 483.167,598.332 483.501,493.332 484.5,388.5 Z"/></g>
<g><path style="opacity:1" fill="#a73a1f" d="M 745.5,381.5 C 746.146,386.155 748.813,388.488 753.5,388.5C 753.351,389.552 753.517,390.552 754,391.5C 756.878,393.589 759.545,395.923 762,398.5C 765.781,405.333 769.281,412.333 772.5,419.5C 771.5,419.5 770.5,419.5 769.5,419.5C 769.5,422.167 769.5,424.833 769.5,427.5C 770.833,427.5 772.167,427.5 773.5,427.5C 772.99,422.831 774.323,421.831 777.5,424.5C 778.912,426.98 780.578,429.313 782.5,431.5C 786.536,442.969 790.202,454.636 793.5,466.5C 796.399,478.692 798.399,491.026 799.5,503.5C 801.049,514.094 801.716,524.76 801.5,535.5C 800.672,529.347 800.172,523.013 800,516.5C 800.043,573.663 800.543,630.663 801.5,687.5C 801.5,698.167 801.5,708.833 801.5,719.5C 801.5,722.167 801.5,724.833 801.5,727.5C 799.251,746.255 795.751,764.922 791,783.5C 784.519,799.138 776.519,813.805 767,827.5C 763.299,830.928 760.632,834.928 759,839.5C 749.975,852.01 740.142,863.677 729.5,874.5C 727.273,875.401 726.273,877.067 726.5,879.5C 725.448,879.351 724.448,879.517 723.5,880C 720.83,881.836 719.163,884.336 718.5,887.5C 706.415,898.413 694.415,909.579 682.5,921C 677.854,922.147 674.187,924.647 671.5,928.5C 665.906,931.007 660.573,933.674 655.5,936.5C 648.825,936.666 642.158,936.5 635.5,936C 633.913,935.138 632.246,934.471 630.5,934C 630.833,933.667 631.167,933.333 631.5,933C 628.854,932.503 626.187,932.336 623.5,932.5C 623.5,931.5 623.5,930.5 623.5,929.5C 619.251,928.835 615.918,926.668 613.5,923C 611.655,921.872 609.655,921.372 607.5,921.5C 602.764,918.938 598.431,915.771 594.5,912C 593.552,911.517 592.552,911.351 591.5,911.5C 587.631,906.284 583.298,901.284 578.5,896.5C 577.675,895.614 576.675,895.281 575.5,895.5C 575.5,894.5 575.5,893.5 575.5,892.5C 573.445,888.489 570.612,885.156 567,882.5C 566.258,878.91 564.425,876.077 561.5,874C 560.551,873.383 559.718,873.549 559,874.5C 559.438,871.801 559.272,869.135 558.5,866.5C 556.999,871.536 555.166,871.536 553,866.5C 552.517,865.552 552.351,864.552 552.5,863.5C 551.167,863.5 549.833,863.5 548.5,863.5C 539.204,853.57 530.871,842.904 523.5,831.5C 522.119,827.758 519.952,824.424 517,821.5C 515.872,819.655 515.372,817.655 515.5,815.5C 514.5,815.5 513.5,815.5 512.5,815.5C 501.996,801.151 495.329,785.151 492.5,767.5C 492.815,763.629 492.482,759.962 491.5,756.5C 491.256,746.792 491.756,737.126 493,727.5C 493.667,724.833 494.333,724.833 495,727.5C 494.534,618.178 494.368,508.844 494.5,399.5C 522.833,399.5 551.167,399.5 579.5,399.5C 579.5,506.167 579.5,612.833 579.5,719.5C 580.5,719.5 581.5,719.5 582.5,719.5C 583.153,611.727 582.487,504.061 580.5,396.5C 565.781,397.784 550.948,398.451 536,398.5C 521.313,398.48 506.647,398.146 492,397.5C 490.624,397.684 489.791,398.351 489.5,399.5C 489.833,501.001 489.499,602.335 488.5,703.5C 489.164,601.828 488.498,500.495 486.5,399.5C 486.882,396.354 486.882,393.354 486.5,390.5C 520.173,390.167 553.84,390.5 587.5,391.5C 588.246,392.736 588.579,394.07 588.5,395.5C 585.5,395.167 584.167,396.5 584.5,399.5C 583.168,506.001 583.168,612.667 584.5,719.5C 585.5,612.835 585.833,506.169 585.5,399.5C 585.834,506.337 586.834,613.004 588.5,719.5C 588.833,719.5 589.167,719.5 589.5,719.5C 589.833,719.5 590.167,719.5 590.5,719.5C 591.167,724.833 591.833,730.167 592.5,735.5C 592.835,743.524 593.502,751.524 594.5,759.5C 595.288,760.77 596.288,761.77 597.5,762.5C 604.504,782.183 614.837,799.85 628.5,815.5C 631.035,822.038 635.702,826.038 642.5,827.5C 644.017,828.735 645.684,828.735 647.5,827.5C 650.415,824.415 653.749,821.915 657.5,820C 659.719,816.604 661.719,813.104 663.5,809.5C 665.112,805.232 667.779,801.898 671.5,799.5C 679.627,790.874 684.96,780.541 687.5,768.5C 689.653,763.039 690.986,757.372 691.5,751.5C 693.078,746.417 693.745,741.084 693.5,735.5C 695.446,730.604 696.113,725.271 695.5,719.5C 695.833,719.5 696.167,719.5 696.5,719.5C 696.716,730.24 696.049,740.906 694.5,751.5C 695.5,751.5 696.5,751.5 697.5,751.5C 697.335,754.85 697.502,758.183 698,761.5C 699.871,762.997 700.871,764.997 701,767.5C 701.499,762.177 701.666,756.844 701.5,751.5C 700.5,751.5 699.5,751.5 698.5,751.5C 698.337,735.448 699.17,719.448 701,703.5C 701.5,660.835 701.667,618.168 701.5,575.5C 700.5,575.5 699.5,575.5 698.5,575.5C 697.833,575.5 697.167,575.5 696.5,575.5C 696.488,564.641 695.821,553.974 694.5,543.5C 694.076,534.777 694.076,526.11 694.5,517.5C 694.154,516.304 693.654,516.304 693,517.5C 693.028,513.315 691.695,509.648 689,506.5C 688.722,507.416 688.222,508.082 687.5,508.5C 684.256,498.677 679.922,489.344 674.5,480.5C 673.675,479.614 672.675,479.281 671.5,479.5C 671.5,478.5 671.5,477.5 671.5,476.5C 667.612,468.034 662.279,460.7 655.5,454.5C 655.5,453.833 655.5,453.167 655.5,452.5C 654.092,451.089 653.092,449.423 652.5,447.5C 654.171,444.793 655.838,442.127 657.5,439.5C 666.05,433.876 674.716,428.21 683.5,422.5C 686.64,421.08 689.973,420.08 693.5,419.5C 696.355,416.48 699.021,413.313 701.5,410C 705.709,409.449 709.042,407.449 711.5,404C 713.134,403.506 714.801,403.34 716.5,403.5C 716.5,402.167 716.5,400.833 716.5,399.5C 717.5,399.5 718.5,399.5 719.5,399.5C 719.5,398.5 719.5,397.5 719.5,396.5C 725.477,391.548 731.81,386.881 738.5,382.5C 740.66,380.436 742.993,380.102 745.5,381.5 Z"/></g>
<g><path style="opacity:1" fill="#2e1921" d="M 480.5,397.5 C 480.167,499.668 480.501,601.668 481.5,703.5C 482.749,717.154 483.583,730.821 484,744.5C 482.956,745.623 482.29,746.956 482,748.5C 481.368,738.662 480.535,728.995 479.5,719.5C 479.167,611.999 479.501,504.665 480.5,397.5 Z"/></g>
<g><path style="opacity:1" fill="#0f292a" d="M 482.5,703.5 C 482.167,703.5 481.833,703.5 481.5,703.5C 480.501,601.668 480.167,499.668 480.5,397.5C 480.312,395.897 480.812,394.563 482,393.5C 482.5,496.833 482.667,600.166 482.5,703.5 Z"/></g>
<g><path style="opacity:1" fill="#b93115" d="M 486.5,389.5 C 486.5,389.833 486.5,390.167 486.5,390.5C 486.882,393.354 486.882,396.354 486.5,399.5C 485.833,500.833 485.167,602.167 484.5,703.5C 483.835,598.495 484.502,493.828 486.5,389.5 Z"/></g>
<g><path style="opacity:1" fill="#ae381d" d="M 486.5,399.5 C 485.836,501.172 486.502,602.505 488.5,703.5C 488.5,714.167 488.5,724.833 488.5,735.5C 487.833,735.5 487.167,735.5 486.5,735.5C 485.179,725.026 484.512,714.359 484.5,703.5C 485.167,602.167 485.833,500.833 486.5,399.5 Z"/></g>
<g><path style="opacity:1" fill="#a33a29" d="M 486.5,399.5 C 488.498,500.495 489.164,601.828 488.5,703.5C 486.502,602.505 485.836,501.172 486.5,399.5 Z"/></g>
<g><path style="opacity:1" fill="#a23e18" d="M 489.5,399.5 C 490.167,399.5 490.833,399.5 491.5,399.5C 491.5,500.833 491.5,602.167 491.5,703.5C 491.499,711.512 491.166,719.512 490.5,727.5C 490.478,730.59 489.812,733.257 488.5,735.5C 488.5,724.833 488.5,714.167 488.5,703.5C 489.499,602.335 489.833,501.001 489.5,399.5 Z"/></g>
<g><path style="opacity:1" fill="#ad342f" d="M 491.5,399.5 C 492.833,449.829 493.5,500.496 493.5,551.5C 493.5,602.504 492.833,653.171 491.5,703.5C 491.5,602.167 491.5,500.833 491.5,399.5 Z"/></g>
<g><path style="opacity:1" fill="#ac3721" d="M 491.5,756.5 C 489.74,749.739 488.74,742.739 488.5,735.5C 489.812,733.257 490.478,730.59 490.5,727.5C 491.166,719.512 491.499,711.512 491.5,703.5C 492.833,653.171 493.5,602.504 493.5,551.5C 493.5,500.496 492.833,449.829 491.5,399.5C 490.833,399.5 490.167,399.5 489.5,399.5C 489.791,398.351 490.624,397.684 492,397.5C 506.647,398.146 521.313,398.48 536,398.5C 550.948,398.451 565.781,397.784 580.5,396.5C 582.487,504.061 583.153,611.727 582.5,719.5C 581.5,719.5 580.5,719.5 579.5,719.5C 579.5,612.833 579.5,506.167 579.5,399.5C 551.167,399.5 522.833,399.5 494.5,399.5C 494.368,508.844 494.534,618.178 495,727.5C 494.333,724.833 493.667,724.833 493,727.5C 491.756,737.126 491.256,746.792 491.5,756.5 Z"/></g>
<g><path style="opacity:1" fill="#9c421a" d="M 584.5,399.5 C 584.833,399.5 585.167,399.5 585.5,399.5C 585.833,506.169 585.5,612.835 584.5,719.5C 583.168,612.667 583.168,506.001 584.5,399.5 Z"/></g>
<g><path style="opacity:1" fill="#b43426" d="M 588.5,395.5 C 588.5,503.5 588.5,611.5 588.5,719.5C 586.834,613.004 585.834,506.337 585.5,399.5C 585.167,399.5 584.833,399.5 584.5,399.5C 584.167,396.5 585.5,395.167 588.5,395.5 Z"/></g>
<g><path style="opacity:1" fill="#a1392d" d="M 486.5,390.5 C 486.5,390.167 486.5,389.833 486.5,389.5C 520.833,389.5 555.167,389.5 589.5,389.5C 589.5,499.5 589.5,609.5 589.5,719.5C 589.167,719.5 588.833,719.5 588.5,719.5C 588.5,611.5 588.5,503.5 588.5,395.5C 588.579,394.07 588.246,392.736 587.5,391.5C 553.84,390.5 520.173,390.167 486.5,390.5 Z"/></g>
<g><path style="opacity:1" fill="#763e2b" d="M 589.5,388.5 C 590.586,388.62 591.253,389.287 591.5,390.5C 590.504,500.145 590.171,609.812 590.5,719.5C 590.167,719.5 589.833,719.5 589.5,719.5C 589.5,609.5 589.5,499.5 589.5,389.5C 589.5,389.167 589.5,388.833 589.5,388.5 Z"/></g>
<g><path style="opacity:1" fill="#933c2b" d="M 719.5,396.5 C 719.5,397.5 719.5,398.5 719.5,399.5C 718.5,399.5 717.5,399.5 716.5,399.5C 716.5,400.833 716.5,402.167 716.5,403.5C 714.801,403.34 713.134,403.506 711.5,404C 709.042,407.449 705.709,409.449 701.5,410C 699.021,413.313 696.355,416.48 693.5,419.5C 689.973,420.08 686.64,421.08 683.5,422.5C 694.345,413.825 705.345,405.325 716.5,397C 717.448,396.517 718.448,396.351 719.5,396.5 Z"/></g>
<g><path style="opacity:1" fill="#943b23" d="M 745.5,381.5 C 746.5,382.167 747.5,382.833 748.5,383.5C 749.5,383.5 750.5,383.5 751.5,383.5C 760.959,395.054 769.459,407.388 777,420.5C 777.49,421.793 777.657,423.127 777.5,424.5C 774.323,421.831 772.99,422.831 773.5,427.5C 772.167,427.5 770.833,427.5 769.5,427.5C 769.5,424.833 769.5,422.167 769.5,419.5C 770.5,419.5 771.5,419.5 772.5,419.5C 769.281,412.333 765.781,405.333 762,398.5C 759.545,395.923 756.878,393.589 754,391.5C 753.517,390.552 753.351,389.552 753.5,388.5C 748.813,388.488 746.146,386.155 745.5,381.5 Z"/></g>
<g><path style="opacity:1" fill="#352218" d="M 657.5,439.5 C 655.838,442.127 654.171,444.793 652.5,447.5C 653.092,449.423 654.092,451.089 655.5,452.5C 653.089,450.781 650.423,449.448 647.5,448.5C 648.745,443.588 651.745,440.255 656.5,438.5C 657.107,438.624 657.44,438.957 657.5,439.5 Z"/></g>
<g><path style="opacity:1" fill="#3a1e15" d="M 655.5,454.5 C 662.279,460.7 667.612,468.034 671.5,476.5C 668.303,475.888 666.969,473.888 667.5,470.5C 665.61,470.703 664.11,470.037 663,468.5C 663.129,464.418 661.462,461.418 658,459.5C 656.906,457.922 656.072,456.255 655.5,454.5 Z"/></g>
<g><path style="opacity:1" fill="#903628" d="M 694.5,543.5 C 694.167,543.5 693.833,543.5 693.5,543.5C 693.332,537.966 692.665,532.633 691.5,527.5C 691.398,520.874 690.065,514.54 687.5,508.5C 688.222,508.082 688.722,507.416 689,506.5C 691.695,509.648 693.028,513.315 693,517.5C 693.654,516.304 694.154,516.304 694.5,517.5C 694.076,526.11 694.076,534.777 694.5,543.5 Z"/></g>
<g><path style="opacity:1" fill="#6b3626" d="M 799.5,503.5 C 800.558,504.6 801.392,505.934 802,507.5C 802.172,514.346 802.672,521.013 803.5,527.5C 803.5,532.833 803.5,538.167 803.5,543.5C 803.167,543.5 802.833,543.5 802.5,543.5C 801.527,541.052 801.194,538.385 801.5,535.5C 801.716,524.76 801.049,514.094 799.5,503.5 Z"/></g>
<g><path style="opacity:1" fill="#2c1f18" d="M 803.5,527.5 C 803.833,527.5 804.167,527.5 804.5,527.5C 804.667,588.834 804.5,650.168 804,711.5C 803.817,714.365 803.317,717.031 802.5,719.5C 803.41,660.839 803.743,602.173 803.5,543.5C 803.5,538.167 803.5,532.833 803.5,527.5 Z"/></g>
<g><path style="opacity:1" fill="#bb3318" d="M 801.5,535.5 C 801.194,538.385 801.527,541.052 802.5,543.5C 802.832,591.67 802.499,639.67 801.5,687.5C 800.543,630.663 800.043,573.663 800,516.5C 800.172,523.013 800.672,529.347 801.5,535.5 Z"/></g>
<g><path style="opacity:1" fill="#913a29" d="M 802.5,543.5 C 802.833,543.5 803.167,543.5 803.5,543.5C 803.743,602.173 803.41,660.839 802.5,719.5C 802.167,719.5 801.833,719.5 801.5,719.5C 801.5,708.833 801.5,698.167 801.5,687.5C 802.499,639.67 802.832,591.67 802.5,543.5 Z"/></g>
<g><path style="opacity:1" fill="#192426" d="M 804.5,527.5 C 806.446,532.396 807.113,537.729 806.5,543.5C 806.5,591.5 806.5,639.5 806.5,687.5C 806.813,703.558 806.146,719.558 804.5,735.5C 803.5,735.5 802.5,735.5 801.5,735.5C 801.5,732.833 801.5,730.167 801.5,727.5C 801.5,724.833 801.5,722.167 801.5,719.5C 801.833,719.5 802.167,719.5 802.5,719.5C 803.317,717.031 803.817,714.365 804,711.5C 804.5,650.168 804.667,588.834 804.5,527.5 Z"/></g>
<g><path style="opacity:1" fill="#242016" d="M 806.5,543.5 C 807.833,567.157 808.5,591.157 808.5,615.5C 808.5,639.843 807.833,663.843 806.5,687.5C 806.5,639.5 806.5,591.5 806.5,543.5 Z"/></g>
<g><path style="opacity:1" fill="#261c28" d="M 811.5,543.5 C 811.5,591.5 811.5,639.5 811.5,687.5C 810.167,663.843 809.5,639.843 809.5,615.5C 809.5,591.157 810.167,567.157 811.5,543.5 Z"/></g>
<g><path style="opacity:1" fill="#1b2611" d="M 811.5,543.5 C 812.833,567.157 813.5,591.157 813.5,615.5C 813.5,639.843 812.833,663.843 811.5,687.5C 811.5,639.5 811.5,591.5 811.5,543.5 Z"/></g>
<g><path style="opacity:1" fill="#261e23" d="M 691.5,527.5 C 692.665,532.633 693.332,537.966 693.5,543.5C 692.198,607.495 692.198,671.495 693.5,735.5C 693.745,741.084 693.078,746.417 691.5,751.5C 691.597,747.651 691.931,743.817 692.5,740C 691.051,733.244 690.218,726.411 690,719.5C 689.333,666.167 689.333,612.833 690,559.5C 690.097,553.057 690.93,546.723 692.5,540.5C 691.537,537.571 690.87,534.571 690.5,531.5C 690.511,529.955 690.844,528.622 691.5,527.5 Z"/></g>
<g><path style="opacity:1" fill="#1e231c" d="M 693.5,543.5 C 693.833,543.5 694.167,543.5 694.5,543.5C 695.352,602.162 695.685,660.829 695.5,719.5C 696.113,725.271 695.446,730.604 693.5,735.5C 692.198,671.495 692.198,607.495 693.5,543.5 Z"/></g>
<g><path style="opacity:1" fill="#381a0a" d="M 694.5,543.5 C 695.821,553.974 696.488,564.641 696.5,575.5C 696.5,623.5 696.5,671.5 696.5,719.5C 696.167,719.5 695.833,719.5 695.5,719.5C 695.685,660.829 695.352,602.162 694.5,543.5 Z"/></g>
<g><path style="opacity:1" fill="#98412f" d="M 696.5,575.5 C 697.167,575.5 697.833,575.5 698.5,575.5C 698.667,618.168 698.5,660.835 698,703.5C 697.827,709.016 697.327,714.349 696.5,719.5C 696.5,671.5 696.5,623.5 696.5,575.5 Z"/></g>
<g><path style="opacity:1" fill="#b0341e" d="M 698.5,575.5 C 699.5,575.5 700.5,575.5 701.5,575.5C 701.667,618.168 701.5,660.835 701,703.5C 699.17,719.448 698.337,735.448 698.5,751.5C 699.5,751.5 700.5,751.5 701.5,751.5C 701.666,756.844 701.499,762.177 701,767.5C 700.871,764.997 699.871,762.997 698,761.5C 697.502,758.183 697.335,754.85 697.5,751.5C 696.5,751.5 695.5,751.5 694.5,751.5C 696.049,740.906 696.716,730.24 696.5,719.5C 697.327,714.349 697.827,709.016 698,703.5C 698.5,660.835 698.667,618.168 698.5,575.5 Z"/></g>
<g><path style="opacity:1" fill="#993c2d" d="M 486.5,735.5 C 487.167,735.5 487.833,735.5 488.5,735.5C 488.74,742.739 489.74,749.739 491.5,756.5C 492.482,759.962 492.815,763.629 492.5,767.5C 490.839,762.03 489.173,756.696 487.5,751.5C 487.528,746.138 487.194,740.805 486.5,735.5 Z"/></g>
<g><path style="opacity:1" fill="#713523" d="M 592.5,735.5 C 593.837,744.447 595.504,753.447 597.5,762.5C 596.288,761.77 595.288,760.77 594.5,759.5C 593.502,751.524 592.835,743.524 592.5,735.5 Z"/></g>
<g><path style="opacity:1" fill="#1d241c" d="M 481.5,703.5 C 481.833,703.5 482.167,703.5 482.5,703.5C 482.833,703.5 483.167,703.5 483.5,703.5C 483.833,703.5 484.167,703.5 484.5,703.5C 484.512,714.359 485.179,725.026 486.5,735.5C 487.194,740.805 487.528,746.138 487.5,751.5C 487.5,756.833 487.5,762.167 487.5,767.5C 486.325,767.281 485.325,767.614 484.5,768.5C 485.448,773.435 485.781,778.435 485.5,783.5C 484.5,783.5 483.5,783.5 482.5,783.5C 482.718,778.789 482.385,774.122 481.5,769.5C 483.109,764.846 484.442,760.179 485.5,755.5C 485.167,754.167 484.833,752.833 484.5,751.5C 483.811,754.408 482.645,757.075 481,759.5C 480.667,762.167 480.333,764.833 480,767.5C 479.836,751.548 479.669,735.548 479.5,719.5C 480.535,728.995 481.368,738.662 482,748.5C 482.29,746.956 482.956,745.623 484,744.5C 483.583,730.821 482.749,717.154 481.5,703.5 Z"/></g>
<g><path style="opacity:1" fill="#54231c" d="M 678.5,786.5 C 676.901,790.418 674.568,793.752 671.5,796.5C 673.12,792.566 675.454,789.233 678.5,786.5 Z"/></g>
<g><path style="opacity:1" fill="#9c3b2f" d="M 687.5,768.5 C 684.96,780.541 679.627,790.874 671.5,799.5C 671.5,798.5 671.5,797.5 671.5,796.5C 674.568,793.752 676.901,790.418 678.5,786.5C 681.533,780.435 684.533,774.435 687.5,768.5 Z"/></g>
<g><path style="opacity:1" fill="#642d21" d="M 628.5,815.5 C 630.877,818.384 633.544,821.217 636.5,824C 639.152,824.353 641.152,825.52 642.5,827.5C 635.702,826.038 631.035,822.038 628.5,815.5 Z"/></g>
<g><path style="opacity:1" fill="#803d29" d="M 663.5,809.5 C 661.719,813.104 659.719,816.604 657.5,820C 653.749,821.915 650.415,824.415 647.5,827.5C 645.684,828.735 644.017,828.735 642.5,827.5C 644.308,827.509 645.975,827.009 647.5,826C 653.196,820.702 658.529,815.202 663.5,809.5 Z"/></g>
<g><path style="opacity:1" fill="#893a29" d="M 512.5,815.5 C 513.5,815.5 514.5,815.5 515.5,815.5C 515.372,817.655 515.872,819.655 517,821.5C 519.952,824.424 522.119,827.758 523.5,831.5C 518.763,827.081 515.096,821.748 512.5,815.5 Z"/></g>
<g><path style="opacity:1" fill="#953829" d="M 548.5,863.5 C 549.833,863.5 551.167,863.5 552.5,863.5C 552.351,864.552 552.517,865.552 553,866.5C 555.166,871.536 556.999,871.536 558.5,866.5C 559.272,869.135 559.438,871.801 559,874.5C 559.718,873.549 560.551,873.383 561.5,874C 564.425,876.077 566.258,878.91 567,882.5C 570.612,885.156 573.445,888.489 575.5,892.5C 573.825,890.851 571.825,889.518 569.5,888.5C 567.291,884.091 563.957,881.091 559.5,879.5C 556.663,873.652 552.997,868.318 548.5,863.5 Z"/></g>
<g><path style="opacity:1" fill="#271f20" d="M 729.5,874.5 C 729.297,876.044 728.63,877.378 727.5,878.5C 729.045,879.452 730.712,879.785 732.5,879.5C 733.342,882.154 733.842,884.821 734,887.5C 731.833,889.667 729.667,891.833 727.5,894C 724.821,893.842 722.154,893.342 719.5,892.5C 719.5,893.5 719.5,894.5 719.5,895.5C 718.5,895.5 717.5,895.5 716.5,895.5C 715.258,906.936 713.591,907.103 711.5,896C 712.793,895.51 714.127,895.343 715.5,895.5C 716.214,893.126 717.548,891.126 719.5,889.5C 719.457,888.584 719.124,887.917 718.5,887.5C 719.163,884.336 720.83,881.836 723.5,880C 724.448,879.517 725.448,879.351 726.5,879.5C 726.273,877.067 727.273,875.401 729.5,874.5 Z"/></g>
<g><path style="opacity:1" fill="#8c3e2e" d="M 607.5,921.5 C 609.655,921.372 611.655,921.872 613.5,923C 615.918,926.668 619.251,928.835 623.5,929.5C 623.5,930.5 623.5,931.5 623.5,932.5C 617.463,929.818 612.129,926.151 607.5,921.5 Z"/></g>
<g><path style="opacity:1" fill="#8c3b2b" d="M 623.5,932.5 C 626.187,932.336 628.854,932.503 631.5,933C 631.167,933.333 630.833,933.667 630.5,934C 632.246,934.471 633.913,935.138 635.5,936C 642.158,936.5 648.825,936.666 655.5,936.5C 644.236,939.733 633.57,938.4 623.5,932.5 Z"/></g>
</svg>
